<?xml version="1.0" encoding="UTF-8" standalone="no"?>
<svg
   xmlns:dc="http://purl.org/dc/elements/1.1/"
   xmlns:cc="http://creativecommons.org/ns#"
   xmlns:rdf="http://www.w3.org/1999/02/22-rdf-syntax-ns#"
   xmlns:svg="http://www.w3.org/2000/svg"
   xmlns="http://www.w3.org/2000/svg"
   xmlns:sodipodi="http://sodipodi.sourceforge.net/DTD/sodipodi-0.dtd"
   xmlns:inkscape="http://www.inkscape.org/namespaces/inkscape"
   width="189.82246mm"
   height="37.033199mm"
   viewBox="0 0 189.82247 37.033199"
   version="1.1"
   id="svg8"
   inkscape:version="1.0.2 (e86c870879, 2021-01-15)"
   sodipodi:docname="quicli-logo-white.svg">
  <defs
     id="defs2" />
  <sodipodi:namedview
     id="base"
     pagecolor="#ffffff"
     bordercolor="#666666"
     borderopacity="1.0"
     inkscape:pageopacity="0.0"
     inkscape:pageshadow="2"
     inkscape:zoom="0.7"
     inkscape:cx="161.76624"
     inkscape:cy="156.90264"
     inkscape:document-units="mm"
     inkscape:current-layer="text817"
     showgrid="false"
     fit-margin-top="0"
     fit-margin-left="0"
     fit-margin-right="0"
     fit-margin-bottom="0"
     inkscape:window-width="1916"
     inkscape:window-height="1055"
     inkscape:window-x="0"
     inkscape:window-y="0"
     inkscape:window-maximized="1"
     inkscape:document-rotation="0"
     inkscape:pagecheckerboard="true" />
  <metadata
     id="metadata5">
    <rdf:RDF>
      <cc:Work
         rdf:about="">
        <dc:format>image/svg+xml</dc:format>
        <dc:type
           rdf:resource="http://purl.org/dc/dcmitype/StillImage" />
        <dc:title></dc:title>
      </cc:Work>
    </rdf:RDF>
  </metadata>
  <g
     inkscape:label="Layer 1"
     inkscape:groupmode="layer"
     id="layer1"
     transform="translate(316.31468,-101.32445)">
    <g
       aria-label="&gt;QUICLI_"
       style="font-style:normal;font-variant:normal;font-weight:normal;font-stretch:normal;font-size:10.58333302px;line-height:1.25;font-family:Jost;-inkscape-font-specification:Jost;letter-spacing:0px;word-spacing:0px;fill:#000000;fill-opacity:1;stroke:none;stroke-width:0.26458332"
       id="text817">
      <g
         id="g827"
         style="fill:#ffffff;fill-opacity:1">
        <path
           inkscape:connector-curvature="0"
           id="path819"
           style="font-style:normal;font-variant:normal;font-weight:500;font-stretch:normal;font-size:50.79999924px;font-family:Jost;-inkscape-font-specification:'Jost Medium';fill:#ffffff;fill-opacity:1;stroke-width:0.30574843"
           d="m -298.78868,120.28109 -17.526,9.49719 v 7.25857 l 25.908,-14.72065 v -4.61293 l -25.908,-14.72064 v 7.25856 z" />
        <path
           inkscape:connector-curvature="0"
           id="path821"
           style="font-style:normal;font-variant:normal;font-weight:500;font-stretch:normal;font-size:50.79999924px;font-family:Jost;-inkscape-font-specification:'Jost Medium';stroke-width:0.26458332;fill:#ffffff;fill-opacity:1"
           d="m -276.70763,119.71405 q 0,-3.6576 1.5748,-6.5024 1.5748,-2.8956 4.318,-4.5212 2.7432,-1.6256 6.2484,-1.6256 3.7592,0 6.5024,1.7272 2.794,1.7272 4.3688,4.6736 1.5748,2.9464 1.5748,6.604 0,3.6576 -1.5748,6.5024 -1.5748,2.8448 -4.318,4.4704 -2.7432,1.5748 -6.2992,1.5748 -3.5052,0 -6.35,-1.6256 -2.794,-1.6764 -4.4196,-4.572 -1.6256,-2.8956 -1.6256,-6.7056 z m -6.35,0 q 0,3.9624 1.3716,7.366 1.3716,3.4036 3.8608,5.8928 2.4892,2.4892 5.8928,3.9116 3.4036,1.3716 7.366,1.3716 4.064,0 7.4168,-1.3716 3.3528,-1.4224 5.7912,-3.9116 2.4892,-2.4892 3.8608,-5.8928 1.3716,-3.4036 1.3716,-7.366 0,-4.0132 -1.3716,-7.366 -1.3716,-3.3528 -3.8608,-5.7912 -2.4892,-2.4892 -5.842,-3.8608 -3.3528,-1.3716 -7.366,-1.3716 -3.9116,0 -7.3152,1.3716 -3.3528,1.3716 -5.8928,3.8608 -2.4892,2.4384 -3.9116,5.7912 -1.3716,3.3528 -1.3716,7.366 z m 16.8656,2.54 15.8496,15.494 h 7.0612 l -16.002,-15.494 z" />
        <path
           inkscape:connector-curvature="0"
           id="path823"
           style="font-style:normal;font-variant:normal;font-weight:500;font-stretch:normal;font-size:50.79999924px;font-family:Jost;-inkscape-font-specification:'Jost Medium';stroke-width:0.26458332;fill:#ffffff;fill-opacity:1"
           d="m -239.62365,101.93405 v 23.876 q 0,2.9464 0.9144,5.2832 0.9144,2.286 2.6416,3.9116 1.778,1.6256 4.1656,2.4892 2.3876,0.8636 5.2324,0.8636 2.8448,0 5.2324,-0.8636 2.3876,-0.8636 4.1148,-2.4892 1.7272,-1.6256 2.6416,-3.9116 0.9652,-2.3368 0.9652,-5.2832 v -23.876 h -5.9944 v 23.622 q 0,3.302 -1.778,5.334 -1.778,1.9812 -5.1816,1.9812 -3.4544,0 -5.2324,-1.9812 -1.7272,-2.032 -1.7272,-5.334 v -23.622 z" />
        <path
           inkscape:connector-curvature="0"
           id="path825"
           style="font-style:normal;font-variant:normal;font-weight:500;font-stretch:normal;font-size:50.79999924px;font-family:Jost;-inkscape-font-specification:'Jost Medium';stroke-width:0.26458332;fill:#ffffff;fill-opacity:1"
           d="m -206.04494,101.93405 v 35.56 h 6.0452 v -35.56 z" />
        <path
           inkscape:connector-curvature="0"
           id="path827"
           style="font-style:normal;font-variant:normal;font-weight:500;font-stretch:normal;font-size:50.79999924px;font-family:Jost;-inkscape-font-specification:'Jost Medium';stroke-width:0.26458332;fill:#ffffff;fill-opacity:1"
           d="m -187.65536,119.71405 q 0,-3.81 1.6764,-6.604 1.7272,-2.8448 4.4704,-4.3688 2.794,-1.5748 6.0452,-1.5748 2.54,0 4.572,0.6604 2.032,0.6604 3.6576,1.8288 1.6764,1.1176 2.8956,2.54 v -7.112 q -2.2352,-1.8288 -4.826,-2.794 -2.5908,-0.9652 -6.5024,-0.9652 -3.9116,0 -7.3152,1.3208 -3.3528,1.3208 -5.842,3.81 -2.4892,2.4892 -3.9116,5.8928 -1.3716,3.3528 -1.3716,7.366 0,4.0132 1.3716,7.4168 1.4224,3.3528 3.9116,5.842 2.4892,2.4892 5.842,3.81 3.4036,1.3208 7.3152,1.3208 3.9116,0 6.5024,-0.9652 2.5908,-0.9652 4.826,-2.794 v -7.112 q -1.2192,1.4224 -2.8956,2.5908 -1.6256,1.1176 -3.6576,1.778 -2.032,0.6604 -4.572,0.6604 -3.2512,0 -6.0452,-1.524 -2.7432,-1.5748 -4.4704,-4.4196 -1.6764,-2.8448 -1.6764,-6.604 z" />
        <path
           inkscape:connector-curvature="0"
           id="path829"
           style="font-style:normal;font-variant:normal;font-weight:500;font-stretch:normal;font-size:50.79999924px;font-family:Jost;-inkscape-font-specification:'Jost Medium';stroke-width:0.26458332;fill:#ffffff;fill-opacity:1"
           d="m -156.97216,101.93405 v 35.56 h 20.1168 v -5.3848 h -14.1224 v -30.1752 z" />
        <path
           inkscape:connector-curvature="0"
           id="path831"
           style="font-style:normal;font-variant:normal;font-weight:500;font-stretch:normal;font-size:50.79999924px;font-family:Jost;-inkscape-font-specification:'Jost Medium';stroke-width:0.26458332;fill:#ffffff;fill-opacity:1"
           d="m -132.53742,101.93405 v 35.56 h 6.0452 v -35.56 z" />
      </g>
    </g>
  </g>
</svg>
